<?xml version="1.0" encoding="utf-8"?>
<!-- Generator: Adobe Illustrator 22.0.0, SVG Export Plug-In . SVG Version: 6.00 Build 0)  -->
<svg version="1.1" id="Capa_1" xmlns="http://www.w3.org/2000/svg" xmlns:xlink="http://www.w3.org/1999/xlink" x="0px" y="0px"
	 viewBox="0 0 640 213" style="enable-background:new 0 0 640 213;" xml:space="preserve">
<style type="text/css">
	.st0{fill:none;stroke:#554D34;}
	.st1{fill:#A99A68;stroke:#554D34;}
	.st2{fill:#FFFFFF;stroke:#211915;}
	.st3{fill:none;stroke:#211915;}
	.st4{stroke:#211915;stroke-miterlimit:10;}
	.st5{fill:#FFFFFF;stroke:#211915;stroke-miterlimit:10;}
	.st6{fill:#A99A68;}
</style>
<path vector-effect="non-scaling-stroke" class="st0" d="M635,153.5c-0.3-3-2.4-4.6-6.5-4.9c-2.3-0.2-7.6-0.3-16-0.3
	c-3.8,0-5-4.2-2.9-6.4c0.8-0.8,2-1.2,3.7-1.3c6.8-0.2,13.5-0.2,20.3-0.1c0.3,0,0.6-0.2,0.6-0.6c0,0,0,0,0,0l-0.2-5.4
	c0-0.4-0.2-0.6-0.6-0.6c-5.9,0.1-11.8,0.2-17.8,0.2c-3.6,0-6.2,0.3-7.6,0.9c-7.4,2.9-7.4,14.6-1.1,18.3c4.6,2.7,13,1.7,18.9,1.7
	c1.2,0,2.5,0.2,3.8,0.8c0.3,0.1,0.6,0.3,0.7,0.6c0.9,1.8,1,6.4-1.7,6.4c-8.2,0.2-16.6,0.2-24.9,0.1c-0.6,0-1,0.4-1.1,1l-0.2,4.3
	c0,0.7,0.3,1.1,1.1,1.1c8.2,0.1,15.8,0.1,22.8,0.1c5.1,0,8.1-1.6,8.8-4.8"/>
<path vector-effect="non-scaling-stroke" class="st1" d="M134.6,52.4c-0.6-6.8,0.8-13.4-0.1-20.2c0-0.3,0.2-0.6,0.5-0.6
	c0,0,0.1,0,0.1,0l24.5,0c0.8,0,1.6-0.5,2-1.2c1.5-2.8,4.9-9.7,4.9-9.8c0,0-13,0-13.5,0c-9.8,0.2-6.9,0-16.6,0c-3.9,0-6.7,0.2-8.3,1
	c-3,1.6-4.4,4.3-4.4,8.2c0,21.4,0.1,42.8,0.2,64.2c0,0.6,0.1,1.2,0.2,1.7c0.1,0.2,0.2,0.3,0.4,0.2c0.1,0,0.2-0.1,0.2-0.2
	c2.9-5.7,5.9-11.2,9.1-16.5c2.2-3.7,1.2-10.1,1.1-14.2c0-0.6,0.5-1.1,1.1-1.1c0,0,0,0,0.1,0l5.7,0.2c0.3,0,1.7-2.1,1.8-2.4
	c1.6-3,2.5-4.4,4.2-8.1c0.1-0.4-0.1-0.8-0.5-0.9c-0.1,0-0.1,0-0.2,0l-11.9,0.1C134.8,52.9,134.6,52.7,134.6,52.4"/>
<path vector-effect="non-scaling-stroke" class="st2" d="M176.2,65v31c0,0.5,0.4,1,0.9,1c0,0,0,0,0,0l10.3,0.1
	c0.4,0,0.7-0.2,0.7-0.7c-0.3-21.1-0.3-42.1,0.2-63.1c0.3-14.2-3.1-12.7-14-12.7c-0.3,0-6.9,0-7.1,0.2l-4.8,9.2
	c-0.2,0.5-0.1,1,0.4,1.3c0.1,0.1,0.3,0.1,0.4,0.1l12.4,0.1c0.4,0,0.7,0.3,0.7,0.7l0,0l0,20.1c0,0.3-0.2,0.5-0.5,0.5l0,0l-25.6,0
	c-0.7,0-1.3,0.4-1.6,0.9l-5.6,9.6c-0.2,0.4-0.1,0.9,0.3,1.1c0.1,0.1,0.3,0.1,0.4,0.1l32.1,0C176.1,64.5,176.2,64.7,176.2,65"/>
<path vector-effect="non-scaling-stroke" class="st3" d="M295.4,146.5c0-8-6.5-14.6-14.5-14.6c0,0,0,0,0,0l-9.2,0
	c-8,0-14.6,6.5-14.6,14.5l0,0l0,7.4c0,8,6.5,14.6,14.5,14.6c0,0,0,0,0,0l9.2,0c8,0,14.6-6.5,14.6-14.5L295.4,146.5"/>
<path vector-effect="non-scaling-stroke" class="st3" d="M209.4,132.7c0-0.1-0.1-0.3-0.3-0.3c0,0,0,0,0,0l-6,0
	c-0.1,0-0.3,0.1-0.3,0.3l-0.1,34.8c0,0.1,0.1,0.3,0.3,0.3c0,0,0,0,0,0l6,0c0.1,0,0.3-0.1,0.3-0.3L209.4,132.7"/>
<path vector-effect="non-scaling-stroke" class="st3" d="M13.3,139l24.1,0c0.6,0,1.1-0.5,1.2-1.1l0.2-4.9c0-0.3-0.1-0.5-0.5-0.5
	l-29,0c-2,0-3,1-2.9,2.9l-0.1,31.8c0,0.4,0.2,0.6,0.6,0.6l5.8-0.1c0.4,0,0.5-0.2,0.5-0.6c-0.1-0.6-0.1-1.1-0.1-1.6
	c-0.2-8.7-0.3-17.3-0.3-26C12.8,139.2,12.9,139,13.3,139"/>
<path vector-effect="non-scaling-stroke" class="st3" d="M51,139l23.8,0c0.9,0,1.4-0.5,1.4-1.4l0.1-4.6c0-0.3-0.1-0.4-0.4-0.4
	c-11.6-0.1-21.1-0.1-28.4,0c-0.6,0-1.4,0.1-2.3,0.3c-0.3,0.1-0.6,0.3-0.7,0.6c-0.4,1.4-0.7,3.3-0.7,5.5c0,5.6,0,11.3,0.1,16.9
	c0,7.4,1.6,11.7,9.6,11.8c7.4,0.1,14.9,0.1,22.3,0c0.3,0,0.5-0.2,0.5-0.5l-0.1-4.6c0-0.7-0.6-1.3-1.3-1.3l-22.7-0.1
	c-1,0-1.8-0.8-1.8-1.8c0,0,0,0,0,0l0.1-19.9C50.5,139.2,50.7,139,51,139"/>
<path vector-effect="non-scaling-stroke" class="st3" d="M106.6,156.3c9.3-1.6,11-7.5,10.6-15.8c-0.3-5.1-2.4-7.9-7.9-8
	c-8.2-0.1-16.6-0.1-25.2,0c-1.2,0-2.2,1-2.2,2.2l-0.1,32.5c0,0.3,0.2,0.5,0.5,0.5l5.7,0c0.3,0,0.5-0.1,0.5-0.5l0-27.8
	c0-0.3,0.2-0.5,0.5-0.5c0,0,0,0,0,0l21.1,0c0.4,0,0.6,0.2,0.6,0.6c0,4.4,0.7,9.9-5.7,10c-4.4,0.1-8.9,0.1-13.4,0.1
	c-0.4,0-0.6,0.2-0.6,0.6l-0.2,5.5c0,0.4,0.3,0.7,0.6,0.7c0,0,0.1,0,0.1,0c2.3-0.4,3.9-0.2,4.8,0.6c3.9,3.5,7.9,7,11.9,10.4
	c0.3,0.2,0.6,0.3,0.9,0.3l8.9,0c0.7,0,0.7-0.2,0.2-0.6l-11.8-10c-0.2-0.2-0.2-0.5-0.1-0.6C106.4,156.4,106.5,156.3,106.6,156.3"/>
<path vector-effect="non-scaling-stroke" class="st3" d="M148,156.2c9.4-1,11.2-8,10.7-16.1c-0.5-7.7-5.3-7.5-12-7.6
	c-8.7-0.1-15.2-0.1-19.4,0c-0.6,0-1.5,0.2-2.8,0.5c-0.3,0.1-0.5,0.3-0.6,0.6c-0.3,1.2-0.5,2.6-0.4,4.1c0.1,5.9,0,15.7-0.1,29.4
	c0,0.3,0.3,0.6,0.6,0.6c0,0,0,0,0,0l5.4-0.1c0.4,0,0.6-0.2,0.6-0.6l-0.1-27.6c0-0.3,0.2-0.6,0.5-0.6c0,0,0,0,0,0l21.1,0
	c0.5,0,0.9,0.4,0.9,0.8c0,0,0,0,0,0.1l-0.6,7.2c0,0.3-0.2,0.6-0.4,0.7c-4.1,3-13.3,1.8-18.5,1.9c-0.3,0-0.5,0.2-0.5,0.5l-0.1,5.2
	c0,0.4,0.3,0.7,0.7,0.8l3.9,0.2c0.3,0,0.5,0.1,0.7,0.3c5.5,5,9.3,8.3,11.2,9.9c2.1,1.7,8.3,1.3,10.9,0.8c0.3-0.1,0.3-0.2,0.1-0.4
	l-12.1-10c-0.2-0.2-0.2-0.5-0.1-0.7C147.8,156.3,147.9,156.2,148,156.2"/>
<path vector-effect="non-scaling-stroke" class="st3" d="M171.8,139l24.9,0c0.3,0,0.4-0.1,0.4-0.4l0.2-5.6c0-0.2-0.2-0.4-0.4-0.4
	c0,0,0,0,0,0c-8.8-0.1-17.7-0.1-26.5,0c-3.3,0-5.5-0.4-5.5,3.9c-0.1,6.7-0.2,13.4-0.3,20c-0.1,6.1,2.1,9.7,6.6,10.9
	c0.9,0.3,4.6,0.4,10.9,0.4c4.8,0,9.7,0,14.6-0.1c0.3,0,0.6-0.3,0.6-0.6l0-5.2c0-0.3-0.2-0.5-0.5-0.5l-23.4-0.1c-1,0-1.8-0.8-1.8-1.8
	l-0.1-19.9C171.2,139.2,171.4,139,171.8,139"/>
<path vector-effect="non-scaling-stroke" class="st3" d="M223.5,139l21,0c0.4,0,0.7,0.2,0.8,0.7c0.6,4.1,0.5,9.8-5.2,10
	c-2.3,0.1-6.9,0.1-13.8,0c-0.3,0-0.6,0.3-0.6,0.6l-0.3,5.3c0,0.3,0.2,0.6,0.5,0.6l4.1,0.2c0.2,0,0.4,0.1,0.6,0.2l11.7,10.2
	c0.7,0.6,1.6,0.9,2.5,0.9l8-0.1c0.2,0,0.4-0.2,0.4-0.4c0-0.1,0-0.2-0.1-0.3l-11.8-9.8c-0.3-0.2-0.3-0.7-0.1-1
	c0.1-0.1,0.3-0.2,0.5-0.2c8.9-1.1,11-8.1,10.3-16c-0.7-7-4.2-7.5-10.2-7.6c-7.3-0.1-14.9-0.1-22.8,0c-1.2,0-2.2,1-2.2,2.2l-0.1,32.4
	c0,0.4,0.2,0.6,0.6,0.6l5.4,0c0.4,0,0.6-0.2,0.6-0.6l-0.1-27.7C223.1,139.1,223.2,139,223.5,139"/>
<path vector-effect="non-scaling-stroke" class="st0" d="M430.2,147.7c-0.1-7.8-6.5-14.1-14.3-14.1l-9.6,0.1
	c-7.8,0.1-14.1,6.5-14.1,14.3l0.1,7.8c0.1,7.8,6.5,14.1,14.3,14.1l9.6-0.1c7.8-0.1,14.1-6.5,14.1-14.3c0,0,0,0,0,0L430.2,147.7"/>
<path vector-effect="non-scaling-stroke" class="st0" d="M597.7,147.7c-0.1-7.9-6.5-14.2-14.4-14.1l0,0l-9.5,0.1
	c-7.9,0.1-14.2,6.5-14.1,14.4l0,0l0.1,7.8c0.1,7.9,6.5,14.2,14.4,14.1l9.5-0.1c7.9-0.1,14.2-6.5,14.1-14.4L597.7,147.7"/>
<path vector-effect="non-scaling-stroke" class="st0" d="M317.6,160.8l21.4-0.1c0.4,0,0.6,0.2,0.6,0.6l0.1,6.5c0,1,0.5,1.5,1.6,1.5
	l4.1,0c0.4,0,0.6-0.2,0.6-0.6c0.2-10.2,0.2-20.4,0.2-30.7c0-1.1-0.3-2.2-1-3.1c-0.2-0.3-0.5-0.4-0.8-0.5c-7.2-0.9-19.7-1.7-26,2.5
	c-6.9,4.5-7.6,10.5-7.7,19.2c0,4.2-0.1,8.3-0.1,12.5c0,0.5,0.2,0.7,0.7,0.7l5.2-0.1c0.5,0,0.7-0.2,0.7-0.7l-0.1-7.2
	C317.1,161,317.3,160.8,317.6,160.8"/>
<path vector-effect="non-scaling-stroke" class="st0" d="M383.5,150c1.6-4.8,3.6-10.7-1.1-14c-1.6-1.1-4.3-1.7-8.2-1.8
	c-6.7-0.2-13.2-0.1-19.4,0.2c-1.3,0.1-1.9,0.7-1.9,2l-0.1,30.7c0,1.2,1,2.3,2.2,2.3c8.8,0.4,17.8,0.4,26.9-0.1
	c2.3-0.1,4.6-1.8,5.4-4.1c1.8-5.5,0.6-10.2-3.7-14.3C383.5,150.6,383.4,150.3,383.5,150"/>
<path vector-effect="non-scaling-stroke" class="st0" d="M464.5,155.6l0,6.9c0,0.4-0.2,0.5-0.5,0.5l-20-0.1c-0.9,0-1.7-0.8-1.7-1.7
	l-0.1-19.1c0-0.7,0.6-1.3,1.3-1.3c0,0,0,0,0,0l26.7-0.2c0.3,0,0.6-0.3,0.6-0.6l0,0v-5.1c0-0.4-0.3-0.7-0.7-0.7
	c-8.2-0.1-16.3-0.1-24.5,0c-6.5,0.1-9.7,3.4-9.9,9.9c-0.1,5.1-0.1,10.2-0.1,15.2c0,6.7,3.4,10.1,10,10.3c8.1,0.2,16.2,0.1,24.3-0.3
	c0.3,0,0.5-0.2,0.6-0.5c0.6-4.3,1.7-15.4-0.3-19.1c-0.4-0.7-0.9-1-1.7-1l-20.3-0.2c-0.3,0-0.6,0.3-0.6,0.6c0,0,0,0,0,0l0,4.9
	c0,1,0.5,1.4,1.4,1.4l14.9-0.4C464.2,155,464.5,155.2,464.5,155.6C464.5,155.6,464.5,155.6,464.5,155.6"/>
<path vector-effect="non-scaling-stroke" class="st0" d="M483.8,160.7l21.5,0c0.3,0,0.6,0.3,0.6,0.6c0,0,0,0,0,0l-0.1,6.4
	c0,1.1,0.5,1.6,1.6,1.6h4.2c0.4,0,0.7-0.2,0.7-0.7v-31.4c0-1.9-0.9-2.9-2.8-3c-10.8-0.6-26.1-2.4-31.1,10.4
	c-2.3,6-1.3,16.3-1.3,23.6c0,0.6,0.5,1.1,1.1,1.1c0,0,0,0,0,0l4.8,0c0.4,0,0.7-0.3,0.7-0.7c0,0,0,0,0,0l-0.1-7.5
	C483.4,160.9,483.5,160.7,483.8,160.7"/>
<path vector-effect="non-scaling-stroke" class="st0" d="M519.3,136.7l-0.2,30.1c0,1.5,1.2,2.7,2.6,2.7h0l17.7,0.1
	c8.2,0,14.9-6.5,15-14.6l0-6c0-8.1-6.6-14.7-14.8-14.7c0,0,0,0,0,0L522,134C520.5,134,519.3,135.2,519.3,136.7
	C519.3,136.7,519.3,136.7,519.3,136.7"/>
<path vector-effect="non-scaling-stroke" class="st3" d="M194.1,147.3c0-0.3-0.2-0.5-0.5-0.5l-19.3-0.1c-0.3,0-0.5,0.2-0.5,0.5l0,0
	l0,5.8c0,0.3,0.2,0.5,0.5,0.5c0,0,0,0,0,0l19.3,0.1c0.3,0,0.5-0.2,0.5-0.5l0,0L194.1,147.3"/>
<path vector-effect="non-scaling-stroke" class="st3" d="M35.7,147.5c0-0.4-0.3-0.7-0.7-0.7c0,0,0,0,0,0H16c-0.4,0-0.7,0.3-0.7,0.7
	l0,0v5.3c0,0.4,0.3,0.7,0.7,0.7l0,0h18.9c0.4,0,0.7-0.3,0.7-0.7l0,0V147.5"/>
<path vector-effect="non-scaling-stroke" class="st3" d="M73.2,147.4c0-0.3-0.3-0.6-0.6-0.6l-19.2,0c-0.3,0-0.6,0.3-0.6,0.6l0,5.6
	c0,0.3,0.3,0.6,0.6,0.6l19.2,0c0.3,0,0.6-0.3,0.6-0.6v0L73.2,147.4"/>
<path vector-effect="non-scaling-stroke" class="st3" d="M288.7,146.3c0-4.3-3.5-7.8-7.8-7.8l0,0h-9.5c-4.3,0-7.8,3.5-7.8,7.8l0,0
	v7.7c0,4.3,3.5,7.8,7.8,7.8h9.5c4.3,0,7.8-3.5,7.8-7.8V146.3"/>
<path vector-effect="non-scaling-stroke" class="st0" d="M423.9,147.9c0-4.3-3.5-7.8-7.9-7.8h0l-9.6,0c-4.3,0-7.8,3.5-7.8,7.9l0,7.7
	c0,4.3,3.5,7.8,7.9,7.8h0l9.6,0c4.3,0,7.8-3.5,7.8-7.9L423.9,147.9"/>
<path vector-effect="non-scaling-stroke" class="st0" d="M591.3,147.9c0-4.3-3.5-7.8-7.8-7.8H574c-4.3,0-7.8,3.5-7.8,7.8v7.7
	c0,4.3,3.5,7.8,7.8,7.8h9.5c4.3,0,7.8-3.5,7.8-7.8V147.9"/>
<path vector-effect="non-scaling-stroke" class="st0" d="M339,140.7c-9.1-1-22.5-1-21.8,12.3c0,0.8,0.5,1.3,1.3,1.3l20.6,0.1
	c0.3,0,0.6-0.3,0.6-0.6c0,0,0,0,0,0l-0.2-12.5C339.5,140.9,339.3,140.8,339,140.7"/>
<path vector-effect="non-scaling-stroke" class="st0" d="M362,154.2l-0.1-5.2c0-0.4,0.3-0.7,0.6-0.7c0,0,0,0,0.1,0
	c3.3,0.3,6.7,0.3,10,0.2c4.8-0.2,7.3-2.7,5.9-7.5c-0.1-0.3-0.3-0.4-0.6-0.4l-17.7,0c-0.5,0-1,0.4-1,1c0,0,0,0,0,0l0.2,20.2
	c0,0.7,0.6,1.3,1.3,1.2l19.8,0c0.8,0,1.5-0.7,1.5-1.5c0,0,0-0.1,0-0.1c-0.3-4.8-2.9-7-7.7-6.5c-2.6,0.3-6.4,0.3-11.5,0
	C362.3,155,362,154.7,362,154.2"/>
<path vector-effect="non-scaling-stroke" class="st0" d="M505.4,140.8c-9.1-1.2-23.8-1-21.8,12.9c0.1,0.4,0.3,0.5,0.6,0.5l20.6,0.2
	c0.6,0,1-0.4,1-1c0,0,0,0,0,0v-12.1C505.9,141,505.7,140.8,505.4,140.8"/>
<path vector-effect="non-scaling-stroke" class="st0" d="M525.5,141.1l0.1,21.3c0,0.3,0.3,0.6,0.6,0.6l13.4,0c4.6,0,8.4-3.6,8.4-7.9
	l0-6.7c0-4.4-3.8-7.9-8.4-7.9c0,0,0,0,0,0l-13.4,0C525.8,140.5,525.5,140.8,525.5,141.1L525.5,141.1"/>
<path class="st4" d="M209.4,132.7c0-0.1-0.1-0.3-0.3-0.3c0,0,0,0,0,0l-6,0c-0.1,0-0.3,0.1-0.3,0.3l-0.1,34.8c0,0.1,0.1,0.3,0.3,0.3
	c0,0,0,0,0,0l6,0c0.1,0,0.3-0.1,0.3-0.3L209.4,132.7z"/>
<path class="st4" d="M13.3,139l24.1,0c0.6,0,1.1-0.5,1.2-1.1l0.2-4.9c0-0.3-0.1-0.5-0.5-0.5l-29,0c-2,0-3,1-2.9,2.9l-0.1,31.8
	c0,0.4,0.2,0.6,0.6,0.6l5.8-0.1c0.4,0,0.5-0.2,0.5-0.6c-0.1-0.6-0.1-1.1-0.1-1.6c-0.2-8.7-0.3-17.3-0.3-26
	C12.8,139.2,12.9,139,13.3,139z"/>
<path class="st4" d="M51,139l23.8,0c0.9,0,1.4-0.5,1.4-1.4l0.1-4.6c0-0.3-0.1-0.4-0.4-0.4c-11.6-0.1-21.1-0.1-28.4,0
	c-0.6,0-1.4,0.1-2.3,0.3c-0.3,0.1-0.6,0.3-0.7,0.6c-0.4,1.4-0.7,3.3-0.7,5.5c0,5.6,0,11.3,0.1,16.9c0,7.4,1.6,11.7,9.6,11.8
	c7.4,0.1,14.9,0.1,22.3,0c0.3,0,0.5-0.2,0.5-0.5l-0.1-4.6c0-0.7-0.6-1.3-1.3-1.3l-22.7-0.1c-1,0-1.8-0.8-1.8-1.8c0,0,0,0,0,0
	l0.1-19.9C50.5,139.2,50.7,139,51,139z"/>
<path class="st4" d="M106.6,156.3c9.3-1.6,11-7.5,10.6-15.8c-0.3-5.1-2.4-7.9-7.9-8c-8.2-0.1-16.6-0.1-25.2,0c-1.2,0-2.2,1-2.2,2.2
	l-0.1,32.5c0,0.3,0.2,0.5,0.5,0.5l5.7,0c0.3,0,0.5-0.1,0.5-0.5l0-27.8c0-0.3,0.2-0.5,0.5-0.5c0,0,0,0,0,0l21.1,0
	c0.4,0,0.6,0.2,0.6,0.6c0,4.4,0.7,9.9-5.7,10c-4.4,0.1-8.9,0.1-13.4,0.1c-0.4,0-0.6,0.2-0.6,0.6l-0.2,5.5c0,0.4,0.3,0.7,0.6,0.7
	c0,0,0.1,0,0.1,0c2.3-0.4,3.9-0.2,4.8,0.6c3.9,3.5,7.9,7,11.9,10.4c0.3,0.2,0.6,0.3,0.9,0.3l8.9,0c0.7,0,0.7-0.2,0.2-0.6l-11.8-10
	c-0.2-0.2-0.2-0.5-0.1-0.6C106.4,156.4,106.5,156.3,106.6,156.3z"/>
<path class="st4" d="M148,156.2c9.4-1,11.2-8,10.7-16.1c-0.5-7.7-5.3-7.5-12-7.6c-8.7-0.1-15.2-0.1-19.4,0c-0.6,0-1.5,0.2-2.8,0.5
	c-0.3,0.1-0.5,0.3-0.6,0.6c-0.3,1.2-0.5,2.6-0.4,4.1c0.1,5.9,0,15.7-0.1,29.4c0,0.3,0.3,0.6,0.6,0.6c0,0,0,0,0,0l5.4-0.1
	c0.4,0,0.6-0.2,0.6-0.6l-0.1-27.6c0-0.3,0.2-0.6,0.5-0.6c0,0,0,0,0,0l21.1,0c0.5,0,0.9,0.4,0.9,0.8c0,0,0,0,0,0.1l-0.6,7.2
	c0,0.3-0.2,0.6-0.4,0.7c-4.1,3-13.3,1.8-18.5,1.9c-0.3,0-0.5,0.2-0.5,0.5l-0.1,5.2c0,0.4,0.3,0.7,0.7,0.8l3.9,0.2
	c0.3,0,0.5,0.1,0.7,0.3c5.5,5,9.3,8.3,11.2,9.9c2.1,1.7,8.3,1.3,10.9,0.8c0.3-0.1,0.3-0.2,0.1-0.4l-12.1-10
	c-0.2-0.2-0.2-0.5-0.1-0.7C147.8,156.3,147.9,156.2,148,156.2z"/>
<path class="st4" d="M171.8,139l24.9,0c0.3,0,0.4-0.1,0.4-0.4l0.2-5.6c0-0.2-0.2-0.4-0.4-0.4c0,0,0,0,0,0c-8.8-0.1-17.7-0.1-26.5,0
	c-3.3,0-5.5-0.4-5.5,3.9c-0.1,6.7-0.2,13.4-0.3,20c-0.1,6.1,2.1,9.7,6.6,10.9c0.9,0.3,4.6,0.4,10.9,0.4c4.8,0,9.7,0,14.6-0.1
	c0.3,0,0.6-0.3,0.6-0.6l0-5.2c0-0.3-0.2-0.5-0.5-0.5l-23.4-0.1c-1,0-1.8-0.8-1.8-1.8l-0.1-19.9C171.2,139.2,171.4,139,171.8,139z"/>
<path class="st4" d="M223.5,139l21,0c0.4,0,0.7,0.2,0.8,0.7c0.6,4.1,0.5,9.8-5.2,10c-2.3,0.1-6.9,0.1-13.8,0c-0.3,0-0.6,0.3-0.6,0.6
	l-0.3,5.3c0,0.3,0.2,0.6,0.5,0.6l4.1,0.2c0.2,0,0.4,0.1,0.6,0.2l11.7,10.2c0.7,0.6,1.6,0.9,2.5,0.9l8-0.1c0.2,0,0.4-0.2,0.4-0.4
	c0-0.1,0-0.2-0.1-0.3l-11.8-9.8c-0.3-0.2-0.3-0.7-0.1-1c0.1-0.1,0.3-0.2,0.5-0.2c8.9-1.1,11-8.1,10.3-16c-0.7-7-4.2-7.5-10.2-7.6
	c-7.3-0.1-14.9-0.1-22.8,0c-1.2,0-2.2,1-2.2,2.2l-0.1,32.4c0,0.4,0.2,0.6,0.6,0.6l5.4,0c0.4,0,0.6-0.2,0.6-0.6l-0.1-27.7
	C223.1,139.1,223.2,139,223.5,139z"/>
<path d="M464.5,155.6l0,6.9c0,0.4-0.2,0.5-0.5,0.5l-20-0.1c-0.9,0-1.7-0.8-1.7-1.7l-0.1-19.1c0-0.7,0.6-1.3,1.3-1.3c0,0,0,0,0,0
	l26.7-0.2c0.3,0,0.6-0.3,0.6-0.6l0,0v-5.1c0-0.4-0.3-0.7-0.7-0.7c-8.2-0.1-16.3-0.1-24.5,0c-6.5,0.1-9.7,3.4-9.9,9.9
	c-0.1,5.1-0.1,10.2-0.1,15.2c0,6.7,3.4,10.1,10,10.3c8.1,0.2,16.2,0.1,24.3-0.3c0.3,0,0.5-0.2,0.6-0.5c0.6-4.3,1.7-15.4-0.3-19.1
	c-0.4-0.7-0.9-1-1.7-1l-20.3-0.2c-0.3,0-0.6,0.3-0.6,0.6c0,0,0,0,0,0l0,4.9c0,1,0.5,1.4,1.4,1.4l14.9-0.4
	C464.2,155,464.5,155.2,464.5,155.6C464.5,155.6,464.5,155.6,464.5,155.6z"/>
<path class="st4" d="M194.1,147.3c0-0.3-0.2-0.5-0.5-0.5l-19.3-0.1c-0.3,0-0.5,0.2-0.5,0.5l0,0l0,5.8c0,0.3,0.2,0.5,0.5,0.5
	c0,0,0,0,0,0l19.3,0.1c0.3,0,0.5-0.2,0.5-0.5l0,0L194.1,147.3z"/>
<path class="st4" d="M35.7,147.5c0-0.4-0.3-0.7-0.7-0.7c0,0,0,0,0,0H16c-0.4,0-0.7,0.3-0.7,0.7l0,0v5.3c0,0.4,0.3,0.7,0.7,0.7l0,0
	h18.9c0.4,0,0.7-0.3,0.7-0.7l0,0V147.5z"/>
<path class="st4" d="M73.2,147.4c0-0.3-0.3-0.6-0.6-0.6l-19.2,0c-0.3,0-0.6,0.3-0.6,0.6l0,5.6c0,0.3,0.3,0.6,0.6,0.6l19.2,0
	c0.3,0,0.6-0.3,0.6-0.6v0L73.2,147.4z"/>
<path class="st5" d="M203.1,132.4l6,0c0.1,0,0.3,0.1,0.3,0.3l-0.1,34.8c0,0.1-0.1,0.3-0.3,0.3l-6,0c-0.1,0-0.3-0.1-0.3-0.3l0.1-34.8
	C202.8,132.5,202.9,132.4,203.1,132.4z"/>
<path class="st5" d="M12.8,139.5c-0.1,8.7,0,17.3,0.3,26c0,0.5,0.1,1,0.1,1.6c0.1,0.4-0.1,0.6-0.5,0.6l-5.8,0.1
	c-0.4,0-0.6-0.2-0.6-0.6l0.1-31.8c0-2,1-2.9,2.9-2.9l29,0c0.3,0,0.5,0.2,0.5,0.5l-0.2,4.9c0,0.6-0.5,1.1-1.2,1.1l-24.1,0
	C12.9,139,12.8,139.2,12.8,139.5z"/>
<path class="st5" d="M50.5,139.5l-0.1,19.9c0,1,0.8,1.8,1.8,1.8c0,0,0,0,0,0l22.7,0.1c0.7,0,1.3,0.6,1.3,1.3l0.1,4.6
	c0,0.3-0.2,0.5-0.5,0.5c-7.4,0.1-14.9,0.1-22.3,0c-8-0.1-9.5-4.5-9.6-11.8c0-5.6-0.1-11.3-0.1-16.9c0-2.2,0.2-4,0.7-5.5
	c0.1-0.3,0.4-0.6,0.7-0.6c0.9-0.2,1.7-0.3,2.3-0.3c7.3-0.1,16.8-0.1,28.4,0c0.3,0,0.4,0.1,0.4,0.4l-0.1,4.6c0,0.9-0.5,1.4-1.4,1.4
	L51,139C50.7,139,50.5,139.2,50.5,139.5z"/>
<path class="st5" d="M106.3,157.1l11.8,10c0.5,0.4,0.4,0.6-0.2,0.6l-8.9,0c-0.3,0-0.7-0.1-0.9-0.3c-4-3.4-8-6.9-11.9-10.4
	c-0.9-0.8-2.4-1-4.8-0.6c-0.4,0.1-0.7-0.2-0.8-0.5c0,0,0-0.1,0-0.1l0.2-5.5c0-0.4,0.2-0.6,0.6-0.6c4.5,0,9-0.1,13.4-0.1
	c6.4-0.1,5.7-5.6,5.7-10c0-0.4-0.2-0.6-0.6-0.6L89,139c-0.3,0-0.6,0.2-0.6,0.5l0,0l0,27.8c0,0.3-0.2,0.5-0.5,0.5l-5.7,0
	c-0.3,0-0.5-0.2-0.5-0.5l0.1-32.5c0-1.2,1-2.2,2.2-2.2c8.6-0.1,17-0.2,25.2,0c5.5,0.1,7.6,2.9,7.9,8c0.4,8.2-1.3,14.2-10.6,15.8
	c-0.3,0-0.4,0.3-0.4,0.5C106.2,156.9,106.3,157,106.3,157.1z"/>
<path class="st5" d="M148,156.2c-0.3,0-0.4,0.3-0.4,0.5c0,0.1,0.1,0.2,0.2,0.3l12.1,10c0.2,0.2,0.2,0.3-0.1,0.4
	c-2.6,0.5-8.8,1-10.9-0.8c-1.9-1.6-5.7-4.9-11.2-9.9c-0.2-0.2-0.5-0.3-0.7-0.3l-3.9-0.2c-0.4,0-0.7-0.4-0.7-0.8l0.1-5.2
	c0-0.3,0.2-0.5,0.5-0.5c5.1-0.1,14.4,1.1,18.5-1.9c0.2-0.2,0.4-0.4,0.4-0.7l0.6-7.2c0-0.5-0.3-0.9-0.8-0.9c0,0,0,0-0.1,0l-21.1,0
	c-0.3,0-0.6,0.3-0.6,0.6c0,0,0,0,0,0l0.1,27.6c0,0.4-0.2,0.6-0.6,0.6l-5.4,0.1c-0.3,0-0.6-0.3-0.6-0.6c0,0,0,0,0,0
	c0.1-13.7,0.1-23.5,0.1-29.4c0-1.5,0.1-2.9,0.4-4.1c0.1-0.3,0.3-0.5,0.6-0.6c1.3-0.3,2.2-0.5,2.8-0.5c4.2-0.1,10.7-0.1,19.4,0
	c6.7,0.1,11.5-0.1,12,7.6C159.2,148.2,157.4,155.2,148,156.2z"/>
<path class="st5" d="M171.2,139.5l0.1,19.9c0,1,0.8,1.8,1.8,1.8l23.4,0.1c0.3,0,0.5,0.2,0.5,0.5l0,5.2c0,0.3-0.3,0.6-0.6,0.6
	c-4.9,0.1-9.7,0.1-14.6,0.1c-6.3,0-10-0.2-10.9-0.4c-4.5-1.2-6.7-4.8-6.6-10.9c0.1-6.7,0.2-13.3,0.3-20c0-4.3,2.2-3.9,5.5-3.9
	c8.8-0.1,17.7-0.1,26.5,0c0.2,0,0.4,0.2,0.4,0.4c0,0,0,0,0,0l-0.2,5.6c0,0.3-0.1,0.4-0.4,0.4l-24.9,0
	C171.4,139,171.2,139.2,171.2,139.5z"/>
<path class="st5" d="M223.1,139.5l0.1,27.7c0,0.4-0.2,0.6-0.6,0.6l-5.4,0c-0.4,0-0.6-0.2-0.6-0.6l0.1-32.4c0-1.2,1-2.2,2.2-2.2
	c7.9-0.1,15.5-0.1,22.8,0c5.9,0.1,9.5,0.6,10.2,7.6c0.8,7.9-1.4,14.9-10.3,16c-0.4,0-0.7,0.4-0.6,0.8c0,0.2,0.1,0.3,0.2,0.5
	l11.8,9.8c0.2,0.1,0.2,0.4,0.1,0.5c-0.1,0.1-0.2,0.1-0.3,0.1l-8,0.1c-0.9,0-1.8-0.3-2.5-0.9l-11.7-10.2c-0.2-0.1-0.4-0.2-0.6-0.2
	l-4.1-0.2c-0.3,0-0.5-0.3-0.5-0.6l0.3-5.3c0-0.3,0.3-0.6,0.6-0.6c6.9,0,11.5,0,13.8,0c5.7-0.2,5.8-5.9,5.2-10
	c-0.1-0.4-0.3-0.7-0.8-0.7l-21,0C223.2,139,223.1,139.1,223.1,139.5z"/>
<path class="st6" d="M635,153.5v11.2c-0.7,3.1-3.6,4.7-8.8,4.8c-7,0-14.6,0-22.8-0.1c-0.7,0-1.1-0.4-1.1-1.1l0.2-4.3
	c0-0.6,0.5-1,1.1-1c8.4,0.1,16.7,0,24.9-0.1c2.7,0,2.7-4.6,1.7-6.4c-0.2-0.3-0.4-0.5-0.7-0.6c-1.3-0.5-2.5-0.8-3.8-0.8
	c-5.8,0.1-14.3,1-18.9-1.7c-6.3-3.7-6.3-15.4,1.1-18.3c1.4-0.6,4-0.9,7.6-0.9c5.9,0,11.8-0.1,17.8-0.2c0.4,0,0.6,0.2,0.6,0.6
	l0.2,5.4c0,0.3-0.2,0.6-0.5,0.6c0,0,0,0,0,0c-6.8-0.1-13.6-0.1-20.3,0.1c-1.7,0-3,0.5-3.7,1.3c-2,2.2-0.9,6.4,2.9,6.4
	c8.4,0.1,13.7,0.2,16,0.3C632.6,149,634.7,150.6,635,153.5z"/>
<path class="st6" d="M463.8,155l-14.9,0.4c-1,0-1.4-0.5-1.4-1.4l0-4.9c0-0.3,0.3-0.6,0.6-0.6c0,0,0,0,0,0l20.3,0.2
	c0.8,0,1.3,0.3,1.7,1c2,3.6,0.9,14.8,0.3,19.1c0,0.3-0.2,0.5-0.6,0.5c-8.1,0.4-16.2,0.5-24.3,0.3c-6.6-0.2-9.9-3.6-10-10.3
	c0-5.1,0-10.1,0.1-15.2c0.1-6.5,3.4-9.8,9.9-9.9c8.2-0.1,16.4-0.1,24.5,0c0.4,0,0.7,0.3,0.7,0.7v5.1c0,0.3-0.3,0.6-0.6,0.6l0,0
	l-26.7,0.2c-0.7,0-1.3,0.6-1.3,1.3c0,0,0,0,0,0l0.1,19.1c0,0.9,0.8,1.7,1.7,1.7l20,0.1c0.4,0,0.5-0.2,0.5-0.5l0-6.9
	C464.5,155.2,464.2,155,463.8,155C463.9,155,463.8,155,463.8,155z"/>
<path class="st5" d="M280.9,131.9l-9.2,0c-8,0-14.6,6.5-14.6,14.5l0,7.4c0,0,0,0,0,0c0,8,6.5,14.6,14.5,14.6l9.2,0
	c8,0,14.6-6.5,14.6-14.5l0-7.4c0,0,0,0,0,0C295.4,138.5,288.9,131.9,280.9,131.9z M288.7,146.3v7.7c0,4.3-3.5,7.8-7.8,7.8h-9.5
	c-4.3,0-7.8-3.5-7.8-7.8v-7.7v0c0-2.1,0.9-4.1,2.3-5.5c0.2-0.2,0.4-0.3,0.6-0.5c0.4-0.3,0.8-0.6,1.2-0.8c1.1-0.6,2.4-0.9,3.7-0.9
	h9.5c1.3,0,2.6,0.3,3.7,0.9c0.4,0.2,0.9,0.5,1.2,0.8c0.2,0.2,0.4,0.3,0.6,0.5C287.8,142.2,288.7,144.2,288.7,146.3L288.7,146.3z"/>
<path class="st6" d="M430.2,147.7c-0.1-7.8-6.5-14.1-14.3-14.1l-9.6,0.1c-7.8,0.1-14.1,6.5-14.1,14.3l0.1,7.8
	c0.1,7.8,6.5,14.1,14.3,14.1l9.6-0.1c0,0,0,0,0,0c7.8-0.1,14.1-6.5,14.1-14.3L430.2,147.7z M422.1,160.6c-0.2,0.2-0.3,0.4-0.5,0.6
	c-0.3,0.3-0.6,0.5-0.9,0.8c-0.2,0.2-0.4,0.3-0.7,0.4c-1.2,0.7-2.5,1.1-4,1.1l-9.6,0c-4.3,0-7.9-3.5-7.9-7.8l0-7.7l0,0v0
	c0-0.6,0.1-1.2,0.2-1.8c0.1-0.3,0.2-0.7,0.3-1c0.1-0.2,0.2-0.4,0.3-0.6c1.3-2.6,3.9-4.5,7.1-4.5l9.6,0h0c0.6,0,1.2,0.1,1.8,0.2
	c0.3,0.1,0.7,0.2,1,0.3c0.7,0.3,1.4,0.7,2,1.2c0.2,0.2,0.5,0.4,0.7,0.6c0,0,0,0,0,0c0.2,0.2,0.5,0.5,0.7,0.8c0.5,0.7,1,1.5,1.3,2.4
	c0.2,0.7,0.4,1.5,0.4,2.3l0,7.7C423.9,157.5,423.2,159.2,422.1,160.6z"/>
<path class="st6" d="M597.7,147.7c-0.1-7.9-6.5-14.2-14.4-14.1l-9.5,0.1c-7.9,0.1-14.2,6.5-14.1,14.4l0.1,7.8
	c0.1,7.9,6.5,14.2,14.4,14.1l9.5-0.1c7.9-0.1,14.2-6.5,14.1-14.4L597.7,147.7z M591.3,155.6c0,4.3-3.5,7.8-7.8,7.8h0H574
	c-4.3,0-7.8-3.5-7.8-7.8v-7.7c0-4.3,3.5-7.8,7.8-7.8h9.5h0c4.3,0,7.8,3.5,7.8,7.8V155.6z"/>
<path class="st6" d="M345.2,135c-0.2-0.3-0.5-0.4-0.8-0.5c-7.2-0.9-19.7-1.7-26,2.5c-6.9,4.5-7.6,10.5-7.7,19.2
	c0,4.2-0.1,8.3-0.1,12.5c0,0.5,0.2,0.7,0.7,0.7l5.2-0.1c0.5,0,0.7-0.2,0.7-0.7l-0.1-7.2c0-0.3,0.2-0.5,0.5-0.5l21.4-0.1
	c0.4,0,0.6,0.2,0.6,0.6l0.1,6.5c0,1,0.5,1.5,1.6,1.5l4.1,0c0.4,0,0.6-0.2,0.6-0.6c0.2-10.2,0.2-20.4,0.2-30.7
	C346.2,137,345.9,135.9,345.2,135z M339.7,153.8c0,0,0,0.1,0,0.1c0,0,0,0.1,0,0.1c0,0,0,0.1-0.1,0.1c0,0,0,0.1-0.1,0.1
	c0,0-0.1,0-0.1,0.1c0,0-0.1,0-0.1,0.1c0,0-0.1,0-0.1,0c0,0-0.1,0-0.1,0c0,0,0,0,0,0l-20.6-0.1c-0.8,0-1.3-0.4-1.3-1.3
	c-0.7-13.3,12.7-13.3,21.8-12.3c0.3,0,0.5,0.2,0.5,0.5L339.7,153.8C339.7,153.7,339.7,153.8,339.7,153.8z"/>
<path class="st6" d="M383.8,150.8c-0.3-0.2-0.3-0.5-0.2-0.8c1.6-4.8,3.6-10.7-1.1-14c-1.6-1.1-4.3-1.7-8.2-1.8
	c-6.7-0.2-13.2-0.1-19.4,0.2c-1.3,0.1-1.9,0.7-1.9,2l-0.1,30.7c0,1.2,1,2.3,2.2,2.3c8.8,0.4,17.8,0.4,26.9-0.1
	c2.3-0.1,4.6-1.8,5.4-4.1C389.2,159.6,388,154.8,383.8,150.8z M381.6,162.5c0,0-0.1,0.1-0.1,0.1c0,0-0.1,0.1-0.1,0.1
	c0,0-0.1,0.1-0.1,0.1c0,0-0.1,0-0.1,0.1c0,0-0.1,0-0.1,0.1c0,0-0.1,0-0.1,0c0,0-0.1,0-0.2,0c0,0-0.1,0-0.1,0c0,0-0.1,0-0.1,0
	l-19.8,0c-0.7,0-1.3-0.6-1.3-1.2l-0.2-20.2c0,0,0,0,0,0c0-0.1,0-0.1,0-0.2c0-0.1,0-0.1,0-0.2c0-0.1,0.1-0.1,0.1-0.2
	c0-0.1,0.1-0.1,0.1-0.2c0,0,0.1-0.1,0.2-0.1c0.1,0,0.1-0.1,0.2-0.1c0.1,0,0.1,0,0.2,0c0.1,0,0.1,0,0.2,0c0,0,0,0,0,0l17.7,0
	c0.3,0,0.5,0.1,0.6,0.4c1.4,4.9-1.1,7.4-5.9,7.5c-3.4,0.1-6.7,0.1-10-0.2c-0.1,0-0.1,0-0.2,0c0,0-0.1,0-0.1,0c0,0-0.1,0-0.1,0.1
	c0,0-0.1,0-0.1,0.1c0,0-0.1,0.1-0.1,0.1c0,0,0,0.1-0.1,0.1c0,0,0,0.1,0,0.1c0,0.1,0,0.1,0,0.2l0.1,5.2c0,0.5,0.3,0.8,0.8,0.8
	c5.1,0.3,8.9,0.2,11.5,0c4.9-0.5,7.4,1.6,7.7,6.5c0,0,0,0.1,0,0.1c0,0,0,0.1,0,0.1c0,0.1,0,0.1,0,0.2c0,0,0,0.1,0,0.1
	c0,0,0,0.1,0,0.1c0,0,0,0.1-0.1,0.1c0,0,0,0.1-0.1,0.1c0,0-0.1,0.1-0.1,0.1C381.6,162.5,381.6,162.5,381.6,162.5z"/>
<path class="st6" d="M509.4,134.3c-10.8-0.6-26.1-2.4-31.1,10.4c-2.3,6-1.3,16.3-1.3,23.6c0,0,0,0,0,0c0,0.6,0.5,1.1,1.1,1.1l4.8,0
	c0,0,0,0,0,0c0.4,0,0.7-0.3,0.6-0.7l-0.1-7.5c0-0.3,0.1-0.5,0.4-0.5l21.5,0c0,0,0,0,0,0c0.3,0,0.6,0.3,0.6,0.6l-0.1,6.4
	c0,1.1,0.5,1.6,1.6,1.6h4.2c0.4,0,0.7-0.2,0.7-0.7v-31.4C512.2,135.4,511.3,134.4,509.4,134.3z M505.9,153.4
	C505.9,153.4,505.9,153.4,505.9,153.4c0,0.1,0,0.1,0,0.2c0,0.1,0,0.1,0,0.2c0,0.1-0.1,0.1-0.1,0.2c0,0.1-0.1,0.1-0.1,0.2
	c0,0-0.1,0.1-0.2,0.1c-0.1,0-0.1,0.1-0.2,0.1c-0.1,0-0.1,0-0.2,0c-0.1,0-0.1,0-0.2,0c0,0,0,0,0,0l-20.6-0.2c-0.4,0-0.6-0.2-0.6-0.5
	c-2-14,12.7-14.2,21.8-12.9c0.3,0,0.5,0.2,0.5,0.5V153.4z"/>
<path class="st6" d="M539.7,134.1L522,134h0c-1.5,0-2.7,1.2-2.7,2.6l-0.2,30.1c0,0,0,0,0,0c0,1.5,1.2,2.7,2.6,2.7l17.7,0.1
	c8.2,0,14.9-6.5,15-14.6l0-6c0,0,0,0,0,0C554.5,140.8,547.9,134.2,539.7,134.1z M539.9,163c-0.3,0-0.7,0.1-1,0.1l-13.4,0
	c-0.3,0-0.6-0.3-0.6-0.6l-0.1-21.3c0-0.3,0.3-0.6,0.6-0.6l0.6,0c0.1,0,0.2-0.1,0.2-0.1l13.4,0c0,0,0,0,0,0c4.6,0,8.4,3.5,8.4,7.9
	l0,6.7C548,159.4,544.4,162.9,539.9,163z"/>
<path class="st5" d="M174.3,146.7l19.3,0.1c0.3,0,0.5,0.2,0.5,0.5l0,5.8c0,0.3-0.2,0.5-0.5,0.5l-19.3-0.1c-0.3,0-0.5-0.2-0.5-0.5
	l0-5.8C173.8,146.9,174,146.7,174.3,146.7z"/>
<path class="st5" d="M16,146.7h18.9c0.4,0,0.7,0.3,0.7,0.7v5.3c0,0.4-0.3,0.7-0.7,0.7H16c-0.4,0-0.7-0.3-0.7-0.7v-5.3
	C15.3,147.1,15.6,146.7,16,146.7z"/>
<path class="st5" d="M53.5,146.7l19.2,0c0.3,0,0.6,0.3,0.6,0.6l0,5.6c0,0.3-0.3,0.6-0.6,0.6l-19.2,0c-0.3,0-0.6-0.3-0.6-0.6l0-5.6
	C52.9,147,53.1,146.7,53.5,146.7z"/>
</svg>
