<svg width="86" height="98" xmlns="http://www.w3.org/2000/svg">

 <g>
  <title>Layer 1</title>
  <g id="svg_2">
   <path stroke="#554D34" fill="#A99A68" d="m21.49316,42.52907c-0.6,-6.8 0.8,-13.4 -0.1,-20.2c0,-0.3 0.2,-0.6 0.5,-0.6c0,0 0.1,0 0.1,0l24.5,0c0.8,0 1.6,-0.5 2,-1.2c1.5,-2.8 4.9,-9.7 4.9,-9.8c0,0 -13,0 -13.5,0c-9.8,0.2 -6.9,0 -16.6,0c-3.9,0 -6.7,0.2 -8.3,1c-3,1.6 -4.4,4.3 -4.4,8.2c0,21.4 0.1,42.8 0.2,64.2c0,0.6 0.1,1.2 0.2,1.7c0.1,0.2 0.2,0.3 0.4,0.2c0.1,0 0.2,-0.1 0.2,-0.2c2.9,-5.7 5.9,-11.2 9.1,-16.5c2.2,-3.7 1.2,-10.1 1.1,-14.2c0,-0.6 0.5,-1.1 1.1,-1.1c0,0 0,0 0.1,0l5.7,0.2c0.3,0 1.7,-2.1 1.8,-2.4c1.6,-3 2.5,-4.4 4.2,-8.1c0.1,-0.4 -0.1,-0.8 -0.5,-0.9c-0.1,0 -0.1,0 -0.2,0l-11.9,0.1c-0.4,0.1 -0.6,-0.1 -0.6,-0.4" class="st1" vector-effect="non-scaling-stroke"/>
   <path stroke="#211915" fill="#FFFFFF" d="m64.09316,55.12907l0,31c0,0.5 0.4,1 0.9,1c0,0 0,0 0,0l10.3,0.1c0.4,0 0.7,-0.2 0.7,-0.7c-0.3,-21.1 -0.3,-42.1 0.2,-63.1c0.3,-14.2 -3.1,-12.7 -14,-12.7c-0.3,0 -6.9,0 -7.1,0.2l-4.8,9.2c-0.2,0.5 -0.1,1 0.4,1.3c0.1,0.1 0.3,0.1 0.4,0.1l12.4,0.1c0.4,0 0.7,0.3 0.7,0.7l0,0l0,20.1c0,0.3 -0.2,0.5 -0.5,0.5l0,0l-25.6,0c-0.7,0 -1.3,0.4 -1.6,0.9l-5.6,9.6c-0.2,0.4 -0.1,0.9 0.3,1.1c0.1,0.1 0.3,0.1 0.4,0.1l32.1,0c0.3,0 0.4,0.2 0.4,0.5" class="st2" vector-effect="non-scaling-stroke"/>
  </g>
 </g>
</svg>